PathFileType	4	(X/Y/Z)	C:\Users\WrightLab\Desktop\Jo\P3_36.trc
DataRate	CameraRate	NumFrames	NumMarkers	Units	OrigDataRate	OrigDataStartFrame	OrigNumFrames
100.00	100.00	       13	19	mm	100.00	293	       584
Frame#	Time	Headset_Front			Headset_Back			Headset_Left			Headset_Right			Left_Shoulder			Right_Shoulder			Sternum			C7			Left Elbow			Right Elbow			Left Wrist			Right Wrist			Left ASIS			Right ASIS			S2			Left Knee			Right Knee			Left Ankle			Right Ankle			
		X1	Y1	Z1	X2	Y2	Z2	X3	Y3	Z3	X4	Y4	Z4	X5	Y5	Z5	X6	Y6	Z6	X7	Y7	Z7	X8	Y8	Z8	X9	Y9	Z9	X10	Y10	Z10	X11	Y11	Z11	X12	Y12	Z12	X13	Y13	Z13	X14	Y14	Z14	X15	Y15	Z15	X16	Y16	Z16	X17	Y17	Z17	X18	Y18	Z18	X19	Y19	Z19	

293	2.920	-431.22644	1427.39282	12.29889	-412.89624	1623.07556	243.30537	-528.65271	1541.67505	159.45966	-318.98169	1491.69214	90.35035	-561.51068	1331.24597	354.62579	-246.77571	1340.37000	182.84000	-463.27588	1213.39990	161.89117	-376.73965	1390.83337	306.90295	-596.08917	994.91577	409.17822	-126.95760	1054.12415	26.63266	-642.40863	811.35370	327.74368	-164.45601	968.10175	-181.41920	-535.59515	859.11548	225.50175				-332.50085	936.25665	364.38693	-597.06750	468.59845	143.21127	-299.21631	435.31174	218.63708	-584.94891	132.90611	161.69211	-272.19360	115.33596	323.99493	
294	2.930	-434.68155	1425.76184	4.05373	-417.17386	1621.32178	235.11060	-532.82031	1539.89600	150.81406	-323.00275	1490.31531	82.40643	-566.47961	1329.65662	345.66269	-251.24519	1339.06030	175.81528	-467.24670	1211.31665	153.76518	-381.74042	1389.73853	299.17542	-600.69836	993.28827	401.26804	-129.91217	1052.67810	19.76298	-647.06195	809.45209	320.69257	-167.16409	966.00775	-188.71864	-539.63208	857.66608	216.39238				-337.77054	934.92157	357.09341	-598.41943	465.66272	136.23540	-301.41995	434.29279	213.77824	-597.33252	130.99008	140.28160	-272.94568	115.18581	322.86288	
295	2.940	-437.77261	1423.88110	-3.57509	-422.12805	1619.78638	226.87538	-536.66272	1538.10522	141.97704	-326.20444	1488.72827	75.77106	-571.92883	1328.25769	336.99176	-254.82410	1337.40588	169.61438	-470.77628	1209.76221	145.30708	-386.18463	1387.79114	291.21201	-605.60150	991.81720	393.12708	-133.86658	1050.92615	14.27598	-651.52985	807.11316	313.52789	-168.87338	963.41138	-193.69215	-543.62598	856.15686	207.30049	-316.04816	863.43549	96.83842	-342.93692	933.16858	349.79153	-600.66510	463.19101	130.07500	-303.08102	433.32800	210.02094	-610.85297	130.83861	119.76553	-273.19504	115.83952	321.73633	
296	2.950	-441.13239	1422.26111	-11.82314	-426.30756	1618.00305	218.93373	-540.99341	1536.78223	132.72395	-330.37738	1486.82336	69.11375	-576.74078	1326.33862	327.88434	-259.31119	1335.92151	163.21623	-475.06021	1207.99280	137.20033	-391.17676	1386.14453	283.08661	-611.27295	990.57483	385.43024	-138.32120	1047.87305	7.49118	-656.26471	805.52161	306.43494	-171.78125	961.18060	-200.63063	-547.89893	854.08972	198.10574				-348.40454	931.42419	342.62305	-603.01520	460.95532	123.54511	-305.18890	431.73178	204.86377	-620.41583	130.12288	100.31388	-272.10437	115.94114	320.97150	
297	2.960	-444.56332	1420.35767	-19.75650	-431.49850	1616.40625	210.55478	-545.17548	1534.81836	125.10681	-333.86935	1485.68213	61.08749	-582.45135	1324.74048	319.38162	-263.04062	1333.72083	156.07378	-478.69415	1206.11560	128.98692	-396.48761	1384.30530	275.67096	-616.65344	989.35474	377.67163	-142.33919	1045.97131	1.75136	-661.10760	803.24725	299.20224	-173.34279	958.06897	-205.46349	-552.21497	852.51495	189.01250				-353.20047	929.86859	335.36945	-605.51703	458.66971	117.36243	-307.34085	431.13599	200.31871	-627.78558	130.27338	79.81184	-272.69025	115.93223	320.71866	
298	2.970	-447.80322	1418.29871	-27.93733	-435.77261	1614.39014	202.41327	-549.04517	1533.05408	116.31861	-337.88388	1483.83020	53.65248	-587.38788	1322.87585	310.21613	-267.62637	1331.98486	149.21034	-483.03619	1204.54688	120.55767	-401.94476	1383.11877	267.77097	-621.94757	987.39508	369.34341	-143.70714	1045.45679	-3.44296	-665.10510	800.90192	291.70370	-175.39395	955.09576	-211.12016	-556.29108	850.81506	179.65617	-325.19147	859.08765	79.39915	-360.61343	928.82446	327.16800	-608.63013	456.58606	110.48311	-310.17914	429.36102	196.83722	-636.86444	131.15292	62.39314	-273.25473	115.93330	320.30551	
299	2.980	-450.92181	1416.86853	-36.27841	-441.17587	1613.30457	194.51936	-554.11804	1531.07874	107.04601	-341.61401	1481.88354	47.26736	-592.88251	1321.12695	301.39954	-271.42050	1330.68018	141.98862	-486.54233	1202.97046	111.80867	-406.73480	1381.22961	259.98795	-627.26526	985.65100	360.74103	-148.78076	1042.37866	-9.52970	-670.98431	799.49994	284.15622	-177.29955	952.46893	-216.34843	-560.25464	848.92932	169.99788				-365.84531	926.87756	320.21884	-612.28259	455.65244	102.24706	-312.64197	428.46951	192.37178	-642.76910	130.99133	47.45237	-274.01862	117.01649	318.79031	
300	2.990	-454.26309	1414.89233	-43.45408	-445.29498	1611.57629	186.08739	-558.16626	1529.24329	98.22013	-344.98248	1480.59668	38.23798	-598.32605	1319.37146	292.28201	-275.96680	1328.92126	135.36432	-490.57556	1201.32690	103.66972	-411.26083	1379.23279	252.02994	-632.93304	983.95557	352.67236	-150.25911	1041.32861	-14.06799	-675.17438	796.81012	276.73422	-179.52481	950.08124	-221.80685	-564.12006	847.08112	160.10844	-330.83688	855.93536	65.42169	-370.19870	924.31207	312.95239	-615.18378	454.26001	95.09085	-314.68307	427.24490	187.67072	-648.27765	131.27135	32.81152	-274.26907	117.68273	317.66537	
301	3.000	-457.90375	1413.22571	-52.36559	-450.68484	1610.52478	178.01311	-561.44830	1527.73645	90.37514	-349.26736	1478.69507	31.15742	-603.71381	1317.60791	283.05447	-279.82935	1327.87793	128.32277	-494.51202	1200.04797	94.85397	-416.84546	1378.08093	244.48766	-638.63751	982.82837	344.43658	-153.90067	1038.74988	-19.58569	-680.05914	795.05591	268.79160	-181.47968	947.41748	-227.29770	-568.07874	845.62750	150.79980	-335.32388	855.73877	53.62561	-376.05746	922.68005	304.72247	-617.30927	453.18640	86.80746	-317.76266	425.87234	182.52782	-653.48370	130.96066	20.96262	-274.61810	117.66628	317.26590	
302	3.010	-461.07602	1411.64490	-60.39012	-454.69641	1609.04517	169.78867	-565.86963	1526.77893	81.47205	-353.10181	1477.29980	23.25012	-609.30157	1316.04309	273.98184	-284.52118	1326.52881	121.31312	-499.25430	1198.70459	86.35986	-422.76767	1376.51587	236.69620	-644.09839	981.32410	335.64539	-156.99994	1036.87292	-24.99451	-684.98993	793.13605	260.55841	-183.27069	944.57587	-232.16760	-572.27631	843.93066	141.14052				-382.80536	922.18335	297.27652	-620.52673	451.49634	79.18870	-319.21307	425.12515	177.78714	-657.69531	130.07918	10.17941	-275.22391	119.06015	315.76086	
303	3.020	-464.43408	1410.41809	-68.56957	-459.22549	1607.99817	161.09569	-569.86584	1525.65576	72.29041	-356.58685	1475.60645	15.99702	-614.97534	1314.52051	264.53522	-288.82571	1324.88794	114.61244	-503.12402	1197.67432	77.94952	-427.85419	1375.54456	228.79373	-650.02191	979.81268	327.01633	-163.29443	1033.75989	-30.41569	-690.32025	791.39874	252.49121	-185.80843	942.03638	-236.64653	-576.16785	842.94568	131.34280	-340.86450	850.73102	40.01326	-387.67905	921.21527	288.29221	-623.57147	450.26718	68.41092	-322.12161	424.22345	172.75313	-659.85223	128.59889	1.01133	-276.29446	119.90321	315.23071	
304	3.030	-467.97791	1409.35791	-76.59222	-463.36072	1606.69507	152.73787	-573.81891	1524.83826	63.05264	-360.43307	1473.62891	8.62205	-620.20636	1312.96533	255.47952	-293.59323	1323.97021	107.67265	-507.30270	1196.55530	68.91572	-433.05994	1373.74976	220.65114	-655.34570	978.51819	318.40579	-166.28642	1032.02344	-34.55962	-695.55566	789.98145	244.15741	-187.66812	938.59033	-240.92157	-581.14423	842.14447	120.14480	-344.00586	849.25439	31.50431	-393.83255	920.43231	280.39206	-625.45752	450.17056	56.58970	-325.13120	423.01041	167.78596	-661.04504	126.48599	-5.79359	-276.96732	121.10573	313.53448	
305	3.040	-471.32895	1407.99084	-84.98152	-466.82608	1605.30652	144.56630	-577.01147	1524.42090	54.28786	-363.90063	1472.25037	1.02526	-626.29309	1311.54614	246.19221	-298.54739	1323.14404	101.11335	-511.55151	1195.19678	60.42836	-439.08218	1372.45972	212.82561	-661.18402	977.12292	309.46753	-170.28757	1030.21277	-40.42736	-700.64014	788.69806	235.64438	-189.28192	936.30713	-246.22583	-585.17004	841.46497	110.69115	-348.06964	848.04376	25.18455	-399.46558	919.06482	272.01959	-628.34229	448.31903	45.76782	-327.66772	422.94583	161.51790	-661.42865	123.66753	-10.19096	-277.63950	121.77924	311.97495	
